<?xml version="1.0" standalone="no"?>
<!DOCTYPE svg PUBLIC "-//W3C//DTD SVG 20010904//EN"
 "http://www.w3.org/TR/2001/REC-SVG-20010904/DTD/svg10.dtd">
<svg version="1.0" xmlns="http://www.w3.org/2000/svg"
 width="512.000000pt" height="512.000000pt" viewBox="0 0 512.000000 512.000000"
 preserveAspectRatio="xMidYMid meet">
<metadata>
Created by potrace 1.11, written by Peter Selinger 2001-2013
</metadata>
<g transform="translate(0.000000,512.000000) scale(0.100000,-0.100000)"
fill="#000000" stroke="none">
<path d="M2146 5049 c2 -4 -3 -9 -11 -13 -8 -3 -16 -2 -19 2 -4 7 -72 6 -146
-3 -81 -9 -177 -19 -197 -19 -13 -1 -23 -4 -23 -8 0 -3 -11 -5 -25 -3 -14 1
-27 -1 -30 -5 -2 -4 -20 -6 -39 -5 -19 1 -33 -2 -31 -5 2 -4 -8 -8 -23 -8 -26
-1 -45 -5 -94 -18 -13 -3 -31 -6 -41 -6 -9 1 -15 -3 -12 -8 3 -4 -4 -6 -15 -3
-11 3 -20 1 -20 -3 0 -5 -10 -10 -22 -10 -30 -2 -50 -8 -65 -17 -7 -5 -17 -5
-23 -2 -5 3 -10 1 -10 -4 0 -6 -11 -11 -24 -11 -13 0 -29 -6 -35 -14 -7 -8
-21 -12 -33 -8 -14 3 -19 1 -14 -6 4 -8 0 -12 -11 -12 -11 0 -25 -6 -32 -12
-11 -11 -12 -10 -5 2 4 8 -5 5 -20 -8 -16 -12 -32 -19 -37 -16 -5 3 -9 1 -9
-4 0 -6 -11 -13 -24 -16 -14 -3 -31 -12 -38 -19 -7 -6 -30 -21 -50 -31 -20
-11 -34 -24 -31 -29 3 -6 1 -7 -5 -3 -6 3 -17 -1 -25 -9 -9 -8 -18 -15 -21
-15 -7 0 -50 -35 -88 -71 -15 -15 -30 -24 -33 -21 -3 3 -5 1 -5 -4 0 -6 -7
-19 -16 -30 -8 -10 -13 -12 -9 -4 4 8 0 6 -9 -5 -8 -11 -21 -27 -28 -35 -7 -8
-12 -18 -11 -22 2 -5 -4 -8 -12 -8 -8 0 -15 -7 -15 -15 0 -8 -3 -15 -8 -15 -4
0 -18 -18 -32 -39 -13 -22 -28 -37 -34 -34 -5 4 -6 1 -1 -7 5 -8 1 -18 -11
-27 -10 -8 -18 -17 -18 -21 2 -13 -19 -52 -29 -52 -5 0 -6 -7 -3 -15 3 -9 -1
-18 -9 -21 -8 -4 -15 -16 -15 -29 0 -12 -6 -28 -14 -35 -8 -6 -12 -19 -9 -27
5 -12 3 -14 -7 -8 -10 6 -12 4 -7 -8 3 -9 2 -19 -3 -22 -5 -3 -14 -24 -20 -46
-6 -22 -15 -37 -19 -35 -4 3 -6 -6 -3 -19 2 -15 0 -25 -7 -25 -7 0 -10 -4 -7
-9 6 -8 -7 -59 -23 -91 -4 -8 -6 -27 -6 -42 1 -15 -3 -24 -7 -22 -4 3 -7 -5
-7 -18 1 -13 -2 -34 -6 -48 -11 -44 -16 -74 -16 -98 1 -13 -3 -21 -8 -18 -10
7 -9 -13 2 -31 4 -6 2 -15 -4 -18 -5 -4 -8 -13 -5 -21 3 -8 1 -14 -5 -14 -6 0
-7 -5 -4 -10 4 -6 1 -18 -7 -27 -9 -12 -9 -15 0 -9 6 4 12 2 12 -3 0 -6 -3
-11 -7 -11 -5 0 -8 -19 -7 -42 0 -24 -4 -49 -9 -55 -6 -9 -5 -13 3 -13 9 0 9
-4 3 -12 -6 -7 -9 -28 -7 -46 2 -22 -1 -30 -9 -25 -7 4 -6 -1 2 -10 12 -15 11
-17 -5 -17 -17 0 -17 -1 2 -15 12 -9 14 -14 6 -15 -7 0 -10 -4 -7 -10 3 -5 0
-10 -7 -10 -8 0 -9 -3 -3 -8 13 -9 14 -62 1 -62 -6 0 -5 -5 1 -11 7 -7 8 -20
3 -34 -4 -12 -5 -28 0 -35 4 -7 5 -24 1 -39 -4 -14 -7 -33 -6 -41 1 -8 -4 -21
-9 -29 -8 -11 -8 -13 1 -8 6 4 14 3 18 -3 3 -5 2 -10 -4 -10 -5 0 -9 -9 -8
-20 1 -11 6 -20 12 -20 5 0 5 -4 -2 -8 -7 -4 -11 -16 -9 -27 2 -11 0 -32 -4
-46 -6 -18 -3 -31 7 -41 13 -13 12 -17 -2 -32 -9 -9 -11 -16 -5 -16 7 0 8 -6
1 -18 -6 -11 -6 -24 -1 -32 5 -9 4 -20 -3 -29 -9 -12 -9 -13 0 -7 8 4 13 1 13
-9 0 -10 -5 -14 -12 -10 -7 4 -4 -1 6 -9 11 -9 14 -16 7 -16 -7 0 -11 -8 -9
-17 1 -10 -1 -24 -6 -32 -6 -9 -5 -12 1 -8 6 4 13 0 17 -8 3 -8 2 -15 -2 -15
-4 0 -7 -20 -8 -45 0 -25 4 -45 9 -45 5 0 4 -7 -3 -15 -7 -8 -8 -15 -3 -15 5
0 10 -7 10 -15 0 -8 -5 -15 -10 -15 -5 0 -4 -7 3 -15 10 -12 10 -15 -1 -15
-11 0 -11 -2 1 -10 8 -5 11 -10 6 -10 -5 0 -3 -6 3 -14 8 -10 9 -16 1 -21 -5
-3 -10 -11 -10 -16 0 -6 3 -8 8 -5 4 2 7 -27 7 -66 0 -38 4 -72 8 -75 4 -3 3
-11 -4 -19 -6 -8 -7 -14 -2 -14 4 0 8 -18 8 -40 0 -22 2 -40 6 -40 3 0 5 -11
4 -25 -2 -14 0 -25 4 -25 4 0 7 -9 7 -20 0 -11 -5 -20 -11 -20 -5 0 -4 -4 2
-8 7 -4 14 -25 15 -45 2 -20 7 -37 12 -37 5 0 3 -6 -3 -14 -8 -10 -9 -16 -1
-21 6 -3 8 -11 5 -16 -4 -5 -2 -9 4 -9 6 0 7 -7 4 -17 -4 -10 -2 -14 4 -10 5
3 10 0 10 -8 0 -8 -5 -15 -11 -15 -6 0 -4 -5 4 -10 13 -8 13 -10 1 -10 -11 0
-10 -4 4 -14 11 -8 16 -20 12 -29 -3 -9 -2 -19 4 -23 6 -4 7 -10 0 -17 -6 -8
-5 -19 5 -32 8 -10 12 -28 8 -39 -4 -17 -3 -18 5 -6 9 12 11 11 11 -7 0 -13 5
-23 11 -23 8 0 8 -4 0 -14 -10 -11 -8 -16 5 -24 16 -9 16 -12 4 -28 -8 -10
-10 -15 -3 -11 13 8 37 -26 26 -37 -3 -3 -2 -6 4 -6 5 0 10 -7 11 -15 1 -8 3
-22 4 -30 1 -8 7 -15 14 -15 8 0 11 -11 9 -32 -3 -24 -2 -29 5 -18 6 10 10 11
10 3 0 -22 3 -28 15 -38 7 -5 18 -26 25 -45 8 -19 27 -48 44 -64 23 -22 26
-27 11 -22 -18 5 -18 4 2 -13 13 -11 23 -24 23 -29 0 -5 7 -13 16 -16 9 -3 14
-13 10 -21 -3 -8 0 -17 6 -21 7 -4 8 -3 4 4 -4 7 -2 12 3 12 6 0 11 -4 11 -10
0 -5 13 -22 30 -36 28 -25 33 -52 7 -38 -7 4 -8 3 -4 -2 5 -5 14 -9 20 -10 7
0 20 -2 30 -2 10 -1 15 -7 12 -12 -3 -6 4 -14 17 -19 14 -6 17 -10 8 -11 -8
-1 -4 -5 10 -9 15 -4 24 -14 24 -24 -1 -9 2 -14 7 -11 5 3 9 -1 9 -8 0 -11 2
-10 9 0 7 11 9 10 15 -3 3 -9 11 -13 17 -9 7 4 10 3 7 -2 -5 -8 23 -43 29 -36
8 7 23 1 18 -8 -3 -6 3 -10 14 -10 11 0 26 -9 34 -21 11 -15 16 -17 20 -7 4
10 6 10 6 1 1 -7 8 -13 16 -13 8 0 15 -5 15 -12 0 -6 3 -9 6 -5 7 6 64 -19 64
-29 0 -3 -5 -2 -12 2 -7 4 -8 3 -4 -5 6 -9 11 -9 22 0 12 10 17 7 16 -11 0 -3
14 -6 31 -6 16 -1 35 -8 41 -15 6 -8 21 -14 34 -13 13 1 29 -5 36 -12 8 -7 16
-10 20 -7 3 4 6 -2 7 -13 0 -18 1 -18 9 1 6 15 9 16 9 4 1 -17 31 -22 31 -5 0
5 7 1 16 -10 8 -10 12 -12 8 -4 -5 10 1 8 16 -5 14 -12 20 -14 15 -5 -7 12 -6
13 6 3 14 -12 74 -25 111 -24 10 0 20 -5 23 -10 4 -5 11 -7 16 -4 5 4 9 2 9
-3 0 -5 11 -8 25 -7 14 2 25 0 25 -5 0 -4 10 -6 22 -2 15 4 19 2 13 -7 -6 -10
-3 -11 14 -2 11 7 21 8 21 3 0 -4 20 -7 45 -7 24 1 42 -2 39 -7 -3 -4 0 -8 6
-8 6 0 8 -6 4 -12 -4 -7 2 -4 14 6 15 13 22 15 22 6 0 -8 4 -9 13 -4 14 11 37
11 52 2 6 -3 25 -5 43 -3 17 1 32 -2 32 -7 0 -6 -7 -8 -15 -5 -8 4 -17 3 -19
-2 -9 -14 28 -9 46 6 12 11 18 11 24 2 5 -8 3 -10 -7 -4 -8 5 -11 5 -7 0 4 -4
2 -15 -4 -24 -7 -9 0 -5 15 8 15 14 27 19 27 12 0 -8 5 -9 19 -2 15 8 20 7 25
-5 3 -9 3 -21 -1 -26 -3 -7 -1 -8 6 -4 6 4 10 14 9 21 -2 8 2 14 7 14 6 1 10
-3 10 -8 0 -5 4 -13 8 -18 5 -4 7 -2 5 6 -2 8 8 15 25 18 17 2 26 0 23 -6 -4
-5 -2 -13 4 -16 6 -4 10 -3 9 2 -4 20 2 24 18 12 15 -12 16 -12 10 5 -6 16 -5
17 8 6 8 -7 12 -16 9 -21 -3 -5 2 -6 10 -3 9 3 13 11 10 18 -3 6 2 2 10 -8 13
-16 16 -16 16 -5 0 10 8 15 23 13 12 -1 26 -3 30 -3 5 -1 6 -5 3 -9 -3 -5 1
-9 9 -9 8 0 12 4 10 8 -3 4 2 9 10 13 8 3 17 0 21 -6 4 -7 3 -8 -4 -4 -17 10
-15 1 4 -14 8 -8 14 -9 13 -4 -4 21 2 26 18 13 15 -12 16 -12 8 1 -8 13 -6 13
8 1 9 -7 14 -18 10 -24 -3 -6 -1 -7 5 -3 9 5 9 13 2 27 -13 23 -7 25 14 3 12
-12 16 -12 16 -2 0 10 3 9 10 -2 8 -13 10 -12 10 4 0 16 2 16 21 -5 11 -13 18
-19 15 -12 -4 6 -2 14 4 18 5 3 10 2 10 -3 0 -5 7 -9 15 -9 12 0 12 3 2 15
-11 13 -9 14 13 2 33 -18 49 -20 56 -8 4 6 10 5 15 -3 6 -10 9 -10 9 -2 0 7 7
10 17 6 11 -4 14 -3 9 5 -5 8 -2 10 8 6 9 -3 13 -11 9 -18 -4 -6 2 -4 12 4 17
13 18 13 10 0 -5 -9 0 -7 14 4 22 20 22 20 15 0 -7 -18 -7 -18 13 -1 17 15 22
15 31 4 7 -8 11 -16 9 -18 -1 -3 8 5 20 18 19 20 22 20 28 5 5 -14 7 -14 15
-2 9 13 10 13 11 0 1 -8 1 -19 0 -23 -1 -5 3 -5 9 -2 6 4 9 12 7 19 -3 7 7 13
25 14 20 2 27 -1 23 -9 -5 -8 -1 -8 14 0 12 7 26 9 32 6 5 -4 16 -2 24 5 9 8
15 8 20 0 5 -8 11 -7 22 1 9 8 17 9 21 3 4 -5 20 -10 36 -11 20 -1 25 2 15 8
-11 7 -9 9 8 9 12 0 29 3 39 7 13 5 15 3 9 -8 -7 -11 -6 -12 6 -2 12 10 18 10
29 0 10 -10 11 -9 5 2 -6 11 -4 13 8 8 9 -3 19 -2 23 4 4 7 10 7 18 0 9 -7 17
-7 26 2 9 8 11 9 6 0 -3 -6 -1 -15 5 -19 7 -4 9 -3 6 2 -11 19 9 37 29 26 13
-7 26 -7 37 -1 9 6 21 8 26 4 5 -3 13 -1 16 5 5 8 12 7 23 -2 12 -10 14 -10 8
0 -5 8 0 12 16 13 32 1 59 6 66 13 3 3 13 -1 22 -9 14 -13 17 -13 17 0 0 8 -5
11 -10 8 -6 -3 -7 -2 -4 3 3 6 21 11 39 12 64 5 73 7 81 17 4 6 10 5 16 -3 7
-11 9 -11 14 2 4 9 14 16 22 16 10 0 13 -5 9 -12 -4 -7 -3 -8 5 -4 8 6 9 12 2
20 -8 10 -3 11 21 8 24 -4 29 -2 23 9 -8 12 -6 12 8 0 15 -12 17 -11 17 4 0
14 3 15 15 5 10 -9 15 -9 15 -1 0 6 9 11 19 11 11 0 23 5 26 10 3 6 11 10 16
10 6 0 8 -4 5 -8 -3 -5 1 -9 8 -9 9 0 12 7 8 15 -4 12 -1 14 12 9 13 -5 17 -3
13 6 -4 10 2 13 18 11 14 -1 26 4 29 13 4 8 13 13 21 9 8 -3 15 -2 15 2 0 4
11 12 25 19 14 6 23 7 19 2 -3 -5 0 -9 5 -9 6 0 11 7 11 16 0 11 5 14 17 10
10 -4 14 -4 11 0 -4 3 -1 13 7 20 17 17 28 18 20 2 -4 -7 0 -5 8 5 8 9 20 17
26 17 7 0 10 4 7 9 -3 5 1 12 10 15 10 4 13 2 8 -7 -4 -6 7 3 25 22 18 21 31
29 32 20 0 -9 3 -8 8 4 4 10 10 17 14 15 4 -2 14 7 23 20 9 13 22 21 29 18 9
-3 11 2 8 17 -3 16 -2 18 5 8 7 -9 12 -10 16 -2 4 6 5 11 2 11 -3 0 8 14 24
30 17 17 30 35 30 41 0 6 5 7 10 4 6 -3 10 -2 10 3 0 5 16 29 35 54 19 25 31
49 27 53 -4 5 -1 5 6 1 7 -4 15 0 19 11 3 10 15 26 27 36 12 10 15 16 8 12
-11 -6 -12 -3 -2 14 6 12 16 19 23 15 9 -5 9 -4 0 6 -10 10 -10 16 1 24 7 6
21 31 31 56 10 25 27 57 38 73 12 18 14 27 6 27 -7 0 -2 12 12 27 13 14 18 23
12 19 -9 -5 -11 -2 -7 8 3 9 11 16 16 16 6 0 4 8 -3 17 -8 9 -9 14 -4 11 6 -3
16 0 23 8 7 8 8 14 2 14 -16 0 -12 21 8 37 9 8 12 12 5 9 -7 -4 -9 1 -6 14 3
11 9 20 14 20 5 0 9 5 9 11 0 5 -6 7 -12 4 -7 -4 -4 1 6 9 11 9 14 16 8 16
-10 0 -10 5 -2 21 7 11 9 27 6 34 -2 7 2 19 10 26 12 10 12 14 2 20 -8 6 -9 9
-2 9 7 0 14 9 17 20 3 11 2 18 -2 15 -4 -2 -8 2 -8 10 0 8 4 12 8 10 4 -3 9 2
13 10 3 8 1 17 -5 20 -5 4 -7 11 -3 16 3 5 10 6 16 3 7 -5 8 -2 2 7 -12 20
-14 39 -2 39 5 0 6 9 3 21 -5 15 -4 19 4 15 8 -5 8 0 2 16 -12 34 -4 53 17 36
12 -10 12 -7 -2 14 -14 22 -15 28 -5 28 11 0 11 2 -1 10 -12 8 -12 10 3 16 9
3 14 10 11 15 -3 5 -11 7 -17 3 -7 -3 -3 2 7 10 15 12 16 16 5 16 -11 0 -12 2
0 9 9 6 10 11 2 15 -7 5 -8 13 -2 25 11 19 10 39 -2 58 -4 6 -2 15 4 19 8 5 9
3 4 -7 -7 -12 -5 -12 6 -1 12 11 12 14 -1 22 -11 7 -11 10 -2 10 9 0 10 5 3
18 -6 10 -6 24 -1 32 5 8 7 17 4 21 -2 4 0 10 5 14 7 4 7 15 1 31 -7 17 -7 23
0 19 6 -3 10 -1 10 4 0 6 -5 11 -10 11 -7 0 -7 6 0 20 6 11 7 20 2 20 -4 0 -6
16 -4 35 2 19 9 35 16 35 6 0 4 5 -4 10 -12 8 -13 13 -3 29 8 13 9 22 3 26 -6
3 -10 11 -10 16 0 6 4 7 10 4 6 -3 7 1 4 9 -3 9 -11 13 -17 9 -6 -4 -7 -1 -1
8 20 32 19 126 -2 160 -6 12 -5 11 9 0 16 -13 17 -12 8 12 -6 16 -7 29 -1 32
13 8 0 36 -14 29 -6 -3 -2 2 8 10 11 9 15 16 9 16 -12 0 -12 18 0 37 4 6 2 15
-4 19 -8 5 -9 3 -4 -6 5 -9 4 -11 -4 -6 -7 5 -9 12 -3 19 10 14 10 47 -1 64
-4 6 -3 14 2 18 7 4 7 15 1 30 -5 14 -6 25 -2 25 9 0 8 47 -1 57 -4 3 -2 12 4
19 7 8 7 14 -1 19 -14 9 -13 27 3 20 6 -4 3 1 -7 9 -20 16 -20 16 0 16 14 0
16 2 5 9 -16 10 -23 93 -7 84 8 -5 8 -3 0 8 -5 8 -11 30 -13 49 -2 19 -4 44
-5 55 -1 11 3 26 8 34 8 11 8 13 0 8 -15 -8 -23 21 -18 63 2 17 0 29 -4 26
-11 -6 -9 25 3 43 5 9 4 12 -2 8 -6 -4 -14 0 -17 9 -4 10 -2 13 6 8 7 -5 8 -3
2 7 -4 8 -9 19 -10 24 -1 6 -5 28 -8 50 -4 22 -11 44 -16 49 -5 5 -5 16 0 27
6 10 6 20 1 23 -9 6 -28 84 -33 139 -1 9 -9 17 -18 17 -13 0 -13 1 0 10 11 7
11 10 2 10 -7 0 -11 4 -7 9 3 5 1 12 -4 16 -6 3 -8 12 -5 19 3 7 -1 20 -8 27
-7 8 -13 21 -13 29 0 8 -5 21 -12 28 -7 7 -10 19 -7 27 4 8 1 15 -6 15 -6 0
-8 5 -5 10 3 6 1 10 -6 10 -7 0 -9 3 -6 6 4 4 -3 20 -15 37 -13 18 -16 27 -7
22 10 -6 9 -3 -3 11 -9 10 -20 32 -24 47 -4 17 -10 24 -14 18 -4 -7 -12 5 -18
28 -7 21 -19 42 -28 45 -8 3 -12 10 -9 16 3 5 1 10 -5 10 -6 0 -14 8 -17 17
-7 17 -25 41 -50 68 -7 8 -13 19 -13 25 0 6 -4 8 -10 5 -5 -3 -15 5 -22 19 -6
14 -14 26 -18 26 -3 0 -33 25 -65 55 -33 30 -66 55 -72 55 -7 0 -13 4 -13 10
0 10 -56 43 -64 38 -3 -2 -11 5 -18 14 -16 21 -144 89 -152 81 -3 -4 -6 0 -6
7 0 7 -3 11 -6 7 -4 -3 -13 0 -21 8 -18 18 -37 20 -27 3 4 -7 -2 -5 -14 5 -12
11 -26 16 -33 11 -8 -4 -10 -3 -5 4 4 7 -4 14 -21 18 -15 3 -35 8 -43 12 -8 3
-19 6 -25 7 -5 0 -16 4 -23 9 -7 4 -28 10 -45 13 -18 3 -38 10 -46 16 -12 10
-13 9 -6 -3 8 -13 7 -13 -8 -1 -9 7 -17 10 -17 6 0 -4 -7 -2 -15 5 -9 7 -18
10 -22 7 -3 -3 -21 0 -39 8 -19 8 -34 11 -34 7 0 -4 -9 -8 -19 -8 -11 0 -17 4
-15 8 6 9 5 9 -46 13 -19 2 -36 4 -37 5 -2 1 -11 3 -20 4 -10 1 -24 5 -32 10
-10 7 -12 6 -6 -3 6 -10 3 -11 -11 -3 -11 5 -30 10 -44 10 -27 1 -105 10 -105
12 0 1 -10 3 -22 4 -13 2 -23 -2 -23 -8 0 -6 -4 -6 -8 2 -5 7 -22 12 -38 12
-55 -1 -119 5 -133 14 -11 7 -13 5 -8 -7 4 -11 2 -14 -8 -10 -8 3 -13 8 -11
12 2 3 -164 7 -370 7 -270 1 -372 -2 -367 -10 4 -6 -1 -5 -10 3 -11 9 -17 10
-17 2 0 -6 -5 -11 -11 -11 -5 0 -8 4 -5 8 2 4 -4 8 -14 8 -10 0 -17 -3 -14 -7z
m-1746 -3429 c0 -5 -2 -10 -4 -10 -3 0 -8 5 -11 10 -3 6 -1 10 4 10 6 0 11 -4
11 -10z"/>
<path d="M260 2779 c0 -5 5 -7 10 -4 6 3 10 8 10 11 0 2 -4 4 -10 4 -5 0 -10
-5 -10 -11z"/>
<path d="M275 2221 c-3 -5 -2 -12 3 -15 5 -3 9 1 9 9 0 17 -3 19 -12 6z"/>
<path d="M509 1243 c-13 -16 -12 -17 4 -4 9 7 17 15 17 17 0 8 -8 3 -21 -13z"/>
<path d="M4506 962 c-3 -5 1 -9 9 -9 8 0 12 4 9 9 -3 4 -7 8 -9 8 -2 0 -6 -4
-9 -8z"/>
<path d="M690 919 c0 -5 5 -7 10 -4 6 3 10 8 10 11 0 2 -4 4 -10 4 -5 0 -10
-5 -10 -11z"/>
<path d="M4375 901 c-3 -5 -2 -12 3 -15 5 -3 9 1 9 9 0 17 -3 19 -12 6z"/>
<path d="M775 880 c-3 -5 -1 -10 4 -10 6 0 11 5 11 10 0 6 -2 10 -4 10 -3 0
-8 -4 -11 -10z"/>
<path d="M4286 862 c-3 -5 1 -9 9 -9 8 0 12 4 9 9 -3 4 -7 8 -9 8 -2 0 -6 -4
-9 -8z"/>
<path d="M850 819 c0 -5 5 -7 10 -4 6 3 10 8 10 11 0 2 -4 4 -10 4 -5 0 -10
-5 -10 -11z"/>
<path d="M796 802 c-3 -5 1 -9 9 -9 8 0 12 4 9 9 -3 4 -7 8 -9 8 -2 0 -6 -4
-9 -8z"/>
<path d="M4254 782 c4 -3 14 -7 22 -8 9 -1 13 0 10 4 -4 3 -14 7 -22 8 -9 1
-13 0 -10 -4z"/>
<path d="M4195 739 c-3 -4 2 -6 10 -5 21 3 28 13 10 13 -9 0 -18 -4 -20 -8z"/>
<path d="M955 691 c-3 -5 -2 -12 3 -15 5 -3 9 1 9 9 0 17 -3 19 -12 6z"/>
<path d="M4030 679 c0 -5 5 -7 10 -4 6 3 10 8 10 11 0 2 -4 4 -10 4 -5 0 -10
-5 -10 -11z"/>
<path d="M1096 642 c-2 -4 -1 -14 4 -22 7 -11 9 -9 7 8 -1 24 -3 26 -11 14z"/>
<path d="M1255 641 c-3 -5 -2 -12 3 -15 5 -3 9 1 9 9 0 17 -3 19 -12 6z"/>
<path d="M4053 623 c4 -3 1 -13 -6 -22 -11 -14 -10 -14 5 -2 16 12 16 31 1 31
-4 0 -3 -3 0 -7z"/>
<path d="M1179 608 c-5 -18 -6 -38 -1 -34 7 8 12 36 6 36 -2 0 -4 -1 -5 -2z"/>
<path d="M3759 593 c-13 -16 -12 -17 4 -4 16 13 21 21 13 21 -2 0 -10 -8 -17
-17z"/>
<path d="M1215 580 c-3 -5 -1 -10 4 -10 6 0 11 5 11 10 0 6 -2 10 -4 10 -3 0
-8 -4 -11 -10z"/>
<path d="M3926 582 c-3 -5 1 -9 9 -9 8 0 12 4 9 9 -3 4 -7 8 -9 8 -2 0 -6 -4
-9 -8z"/>
<path d="M1333 545 c0 -8 4 -12 9 -9 5 3 6 10 3 15 -9 13 -12 11 -12 -6z"/>
<path d="M1375 540 c-3 -5 -1 -10 4 -10 6 0 11 5 11 10 0 6 -2 10 -4 10 -3 0
-8 -4 -11 -10z"/>
<path d="M3770 540 c0 -5 5 -10 11 -10 5 0 7 5 4 10 -3 6 -8 10 -11 10 -2 0
-4 -4 -4 -10z"/>
<path d="M1475 531 c-3 -5 -2 -12 3 -15 5 -3 9 1 9 9 0 17 -3 19 -12 6z"/>
<path d="M1655 500 c3 -5 8 -10 11 -10 2 0 4 5 4 10 0 6 -5 10 -11 10 -5 0 -7
-4 -4 -10z"/>
<path d="M3490 499 c0 -5 5 -7 10 -4 6 3 10 8 10 11 0 2 -4 4 -10 4 -5 0 -10
-5 -10 -11z"/>
<path d="M3735 501 c-3 -5 -2 -12 3 -15 5 -3 9 1 9 9 0 17 -3 19 -12 6z"/>
<path d="M3246 482 c-2 -4 4 -8 14 -8 10 0 16 4 14 8 -3 4 -9 8 -14 8 -5 0
-11 -4 -14 -8z"/>
<path d="M3387 479 c7 -7 15 -10 18 -7 3 3 -2 9 -12 12 -14 6 -15 5 -6 -5z"/>
<path d="M3427 479 c7 -7 15 -10 18 -7 3 3 -2 9 -12 12 -14 6 -15 5 -6 -5z"/>
<path d="M1615 471 c-3 -5 -2 -12 3 -15 5 -3 9 1 9 9 0 17 -3 19 -12 6z"/>
<path d="M1574 456 c1 -8 5 -18 8 -22 4 -3 5 1 4 10 -1 8 -5 18 -8 22 -4 3 -5
-1 -4 -10z"/>
<path d="M1855 460 c3 -5 8 -10 11 -10 2 0 4 5 4 10 0 6 -5 10 -11 10 -5 0 -7
-4 -4 -10z"/>
<path d="M3335 460 c-3 -5 -1 -10 4 -10 6 0 11 5 11 10 0 6 -2 10 -4 10 -3 0
-8 -4 -11 -10z"/>
<path d="M1674 446 c1 -8 5 -18 8 -22 4 -3 5 1 4 10 -1 8 -5 18 -8 22 -4 3 -5
-1 -4 -10z"/>
<path d="M2115 451 c-3 -5 -2 -12 3 -15 5 -3 9 1 9 9 0 17 -3 19 -12 6z"/>
<path d="M1745 440 c-3 -6 1 -7 9 -4 18 7 21 14 7 14 -6 0 -13 -4 -16 -10z"/>
<path d="M1933 431 c0 -11 5 -18 9 -15 4 3 5 11 1 19 -7 21 -12 19 -10 -4z"/>
<path d="M2064 442 c4 -3 14 -7 22 -8 9 -1 13 0 10 4 -4 3 -14 7 -22 8 -9 1
-13 0 -10 -4z"/>
<path d="M2680 440 c-9 -6 -10 -10 -3 -10 6 0 15 5 18 10 8 12 4 12 -15 0z"/>
<path d="M2747 439 c7 -7 15 -10 18 -7 3 3 -2 9 -12 12 -14 6 -15 5 -6 -5z"/>
<path d="M2790 436 c7 -7 13 -7 20 0 6 6 3 10 -10 10 -13 0 -16 -4 -10 -10z"/>
<path d="M3230 446 c0 -2 7 -7 16 -10 8 -3 12 -2 9 4 -6 10 -25 14 -25 6z"/>
<path d="M3393 435 c0 -8 4 -12 9 -9 5 3 6 10 3 15 -9 13 -12 11 -12 -6z"/>
<path d="M1779 428 c-5 -18 -6 -38 -1 -34 7 8 12 36 6 36 -2 0 -4 -1 -5 -2z"/>
<path d="M1855 419 c-3 -4 2 -6 10 -5 21 3 28 13 10 13 -9 0 -18 -4 -20 -8z"/>
<path d="M1975 420 c3 -5 8 -10 11 -10 2 0 4 5 4 10 0 6 -5 10 -11 10 -5 0 -7
-4 -4 -10z"/>
<path d="M2175 420 c3 -5 8 -10 11 -10 2 0 4 5 4 10 0 6 -5 10 -11 10 -5 0 -7
-4 -4 -10z"/>
<path d="M2215 420 c3 -5 8 -10 11 -10 2 0 4 5 4 10 0 6 -5 10 -11 10 -5 0 -7
-4 -4 -10z"/>
<path d="M2935 420 c3 -5 8 -10 11 -10 2 0 4 5 4 10 0 6 -5 10 -11 10 -5 0 -7
-4 -4 -10z"/>
<path d="M2970 419 c0 -5 5 -7 10 -4 6 3 10 8 10 11 0 2 -4 4 -10 4 -5 0 -10
-5 -10 -11z"/>
<path d="M3050 419 c0 -5 5 -7 10 -4 6 3 10 8 10 11 0 2 -4 4 -10 4 -5 0 -10
-5 -10 -11z"/>
<path d="M3095 420 c3 -5 8 -10 11 -10 2 0 4 5 4 10 0 6 -5 10 -11 10 -5 0 -7
-4 -4 -10z"/>
<path d="M2015 400 c-3 -5 -1 -10 4 -10 6 0 11 5 11 10 0 6 -2 10 -4 10 -3 0
-8 -4 -11 -10z"/>
<path d="M2673 395 c0 -8 4 -12 9 -9 5 3 6 10 3 15 -9 13 -12 11 -12 -6z"/>
<path d="M2750 400 c0 -5 5 -10 11 -10 5 0 7 5 4 10 -3 6 -8 10 -11 10 -2 0
-4 -4 -4 -10z"/>
<path d="M3014 396 c1 -8 5 -18 8 -22 4 -3 5 1 4 10 -1 8 -5 18 -8 22 -4 3 -5
-1 -4 -10z"/>
<path d="M3186 398 c3 -4 9 -8 15 -8 5 0 9 4 9 8 0 5 -7 9 -15 9 -8 0 -12 -4
-9 -9z"/>
<path d="M2453 385 c0 -8 4 -12 9 -9 5 3 6 10 3 15 -9 13 -12 11 -12 -6z"/>
<path d="M2110 379 c0 -5 5 -7 10 -4 6 3 10 8 10 11 0 2 -4 4 -10 4 -5 0 -10
-5 -10 -11z"/>
<path d="M2173 375 c0 -8 4 -12 9 -9 5 3 6 10 3 15 -9 13 -12 11 -12 -6z"/>
<path d="M2259 388 c-5 -18 -6 -38 -1 -34 7 8 12 36 6 36 -2 0 -4 -1 -5 -2z"/>
<path d="M2354 382 c4 -3 14 -7 22 -8 9 -1 13 0 10 4 -4 3 -14 7 -22 8 -9 1
-13 0 -10 -4z"/>
<path d="M2530 380 c0 -5 5 -10 11 -10 5 0 7 5 4 10 -3 6 -8 10 -11 10 -2 0
-4 -4 -4 -10z"/>
<path d="M2570 379 c0 -5 5 -7 10 -4 6 3 10 8 10 11 0 2 -4 4 -10 4 -5 0 -10
-5 -10 -11z"/>
<path d="M2915 379 c-3 -4 2 -6 10 -5 21 3 28 13 10 13 -9 0 -18 -4 -20 -8z"/>
<path d="M2320 360 c-9 -6 -10 -10 -3 -10 6 0 15 5 18 10 8 12 4 12 -15 0z"/>
<path d="M2766 362 c-3 -5 1 -9 9 -9 8 0 12 4 9 9 -3 4 -7 8 -9 8 -2 0 -6 -4
-9 -8z"/>
<path d="M2107 319 c7 -7 15 -10 18 -7 3 3 -2 9 -12 12 -14 6 -15 5 -6 -5z"/>
</g>
</svg>
